<?xml version="1.0" encoding="utf-8"?>
<!-- Generator: Adobe Illustrator 26.5.0, SVG Export Plug-In . SVG Version: 6.00 Build 0)  -->
<svg version="1.1" id="Layer_1" xmlns="http://www.w3.org/2000/svg" xmlns:xlink="http://www.w3.org/1999/xlink" x="0px" y="0px"
	 viewBox="0 0 283.47 92.34" style="enable-background:new 0 0 283.47 92.34;" xml:space="preserve">
<style type="text/css">
	.st0{fill:#00B0D5;}
	.st1{fill:#F8B20E;}
	.st2{fill:#8E489B;}
	.st3{fill:#E51875;}
</style>
<polygon class="st0" points="19.41,0 0,48.36 13.27,48.36 18.31,48.36 24.16,28.91 24.32,28.91 24.4,28.91 30.24,48.36 34.96,48.36 
	48.36,48.36 29.15,0 "/>
<path class="st1" d="M206.4,24.18C206.4,10.83,195.58,0,182.22,0h-10.78v14.26h10.78v0c5.5,0,9.96,4.46,9.96,9.96
	s-4.46,9.96-9.96,9.96v0h-10.78v14.17h10.78C195.58,48.36,206.4,37.53,206.4,24.18"/>
<path class="st2" d="M248.51,24.18C248.51,10.83,259.33,0,272.69,0h10.78v14.26h-10.78v0c-5.5,0-9.96,4.46-9.96,9.96
	c0,5.5,4.46,9.96,9.96,9.96v0h10.78v14.17h-10.78C259.33,48.36,248.51,37.53,248.51,24.18"/>
<path class="st3" d="M123.11,16.67c0-5.03-1.96-10-5.95-13.2c-4.18-3.33-9.8-3.46-14.9-3.46H86.97v12.53h16.88
	c3.19,0,5.98,1.32,5.98,4.9c0,3.73-2.6,5.2-6.08,5.2H90.27l18.44,25.73h12.61h2.9h2.87l-13.61-17.07
	C119.63,29.19,123.11,23.3,123.11,16.67"/>
</svg>
